<?xml version="1.0" standalone="no"?>
<!DOCTYPE svg PUBLIC "-//W3C//DTD SVG 20010904//EN"
 "http://www.w3.org/TR/2001/REC-SVG-20010904/DTD/svg10.dtd">
<svg version="1.0" xmlns="http://www.w3.org/2000/svg"
 width="512.000000pt" height="512.000000pt" viewBox="0 0 512.000000 512.000000"
 preserveAspectRatio="xMidYMid meet">

<g transform="translate(0.000000,512.000000) scale(0.100000,-0.100000)"
fill="#000000" stroke="none">
<path d="M4471 5060 c-134 -28 -258 -125 -319 -248 -33 -69 -37 -84 -40 -176
-3 -82 0 -112 16 -157 l19 -56 -326 -279 c-179 -153 -333 -278 -341 -277 -8 0
-44 14 -80 29 -59 26 -76 29 -176 29 -108 0 -112 -1 -188 -38 -50 -25 -96 -58
-131 -93 l-53 -54 -251 87 -251 88 0 45 c-2 260 -258 475 -516 432 -269 -45
-441 -308 -368 -562 8 -30 16 -62 17 -71 1 -10 -139 -140 -369 -342 l-371
-325 -59 29 c-251 122 -557 -22 -629 -296 -52 -203 48 -421 235 -513 107 -52
202 -64 305 -37 92 24 144 54 213 122 90 89 125 168 130 293 3 75 -1 109 -16
158 l-21 64 32 28 c18 15 186 162 374 327 l342 300 55 -27 c168 -85 377 -49
516 90 l57 57 249 -87 249 -88 6 -75 c8 -98 50 -188 121 -263 118 -125 279
-171 443 -129 235 61 385 316 319 545 -8 30 -16 62 -17 72 -1 10 118 119 326
297 l329 281 50 -26 c268 -136 594 26 649 321 40 217 -98 448 -305 510 -65 20
-168 27 -225 15z m198 -267 c34 -21 53 -43 74 -82 35 -70 35 -121 1 -190 -99
-198 -394 -127 -394 95 0 66 18 108 64 153 69 67 169 76 255 24z m-2711 -645
c56 -14 124 -77 142 -133 45 -137 -56 -278 -200 -278 -193 0 -285 242 -138
367 59 51 117 64 196 44z m1350 -474 c78 -32 132 -111 132 -194 0 -191 -232
-279 -367 -140 -42 43 -56 88 -51 161 10 141 155 228 286 173z m-2723 -771
c75 -38 115 -103 115 -188 0 -67 -24 -119 -74 -163 -133 -117 -346 -14 -346
168 0 47 44 134 82 161 67 48 154 56 223 22z"/>
<path d="M4103 3734 c-18 -9 -40 -28 -50 -43 -17 -25 -18 -108 -21 -1706 -2
-924 0 -1700 3 -1724 5 -32 16 -54 40 -78 l33 -33 441 0 c376 0 446 2 471 15
64 33 60 -95 60 1782 0 1695 0 1708 -20 1741 -37 61 -45 62 -507 62 -360 0
-422 -3 -450 -16z m737 -1784 l0 -1560 -285 0 -285 0 0 1553 c0 855 3 1557 7
1560 3 4 132 7 285 7 l278 0 0 -1560z"/>
<path d="M1414 2926 l-34 -34 0 -1365 0 -1364 22 -28 c42 -54 52 -55 498 -55
446 0 456 1 498 55 l22 28 0 1354 c0 1182 -2 1358 -15 1383 -32 62 -16 60
-508 60 l-449 0 -34 -34z m766 -1406 l0 -1200 -280 0 -280 0 0 1200 0 1200
280 0 280 0 0 -1200z"/>
<path d="M2744 2486 l-34 -34 0 -1132 0 -1132 33 -33 c24 -24 46 -35 78 -40
24 -3 224 -5 444 -3 435 3 430 3 465 61 19 31 20 61 20 1145 0 968 -2 1117
-15 1142 -32 62 -16 60 -508 60 l-449 0 -34 -34z m766 -1171 l0 -965 -280 0
-280 0 0 965 0 965 280 0 280 0 0 -965z"/>
<path d="M108 1654 c-60 -32 -58 -6 -58 -797 0 -719 0 -724 21 -751 44 -56 42
-56 499 -56 370 0 426 2 456 16 67 32 64 -3 64 801 0 800 3 755 -60 788 -43
22 -881 22 -922 -1z m742 -794 l0 -570 -280 0 -280 0 0 570 0 570 280 0 280 0
0 -570z"/>
</g>
</svg>
