<?xml version="1.0" standalone="no"?>
<!DOCTYPE svg PUBLIC "-//W3C//DTD SVG 20010904//EN"
 "http://www.w3.org/TR/2001/REC-SVG-20010904/DTD/svg10.dtd">
<svg version="1.0" xmlns="http://www.w3.org/2000/svg"
 width="570.000000pt" height="600.000000pt" viewBox="0 0 570.000000 600.000000"
 preserveAspectRatio="xMidYMid meet">

<g transform="translate(0.000000,600.000000) scale(0.100000,-0.100000)"
fill="#000000" stroke="none">
<path d="M1923 5000 c-36 -15 -49 -48 -86 -219 -20 -90 -39 -167 -44 -171 -4
-4 -51 -22 -103 -39 -52 -18 -138 -54 -190 -80 l-96 -48 -154 98 c-108 70
-163 99 -184 99 -26 0 -61 -30 -253 -223 -176 -175 -223 -228 -223 -248 0 -16
39 -88 100 -183 l99 -156 -49 -101 c-27 -55 -64 -145 -81 -198 l-32 -98 -176
-37 c-129 -28 -182 -43 -198 -59 -23 -20 -23 -22 -23 -337 0 -308 1 -317 21
-336 13 -13 81 -33 197 -59 l177 -40 41 -115 c22 -63 60 -152 82 -197 l42 -83
-90 -139 c-105 -162 -114 -182 -107 -213 4 -13 105 -121 225 -241 187 -186
222 -217 248 -217 21 0 77 30 184 99 l154 98 96 -48 c52 -26 138 -62 190 -80
52 -17 98 -35 102 -38 4 -4 25 -85 47 -180 29 -129 44 -178 60 -194 21 -21 29
-22 324 -25 385 -3 351 -19 396 184 54 246 37 216 138 247 49 15 135 50 192
77 57 28 108 50 114 50 5 0 77 -43 158 -95 107 -69 157 -95 180 -95 28 0 58
26 253 220 l221 220 -110 110 -110 110 -376 0 c-416 0 -433 2 -505 64 l-38 33
-81 -38 c-491 -230 -1084 -21 -1329 468 -74 147 -106 287 -106 456 1 391 221
741 573 912 114 55 211 82 342 95 181 18 381 -17 536 -96 l70 -35 39 35 c69
62 99 66 509 66 l366 0 110 110 110 110 -220 220 c-200 200 -224 220 -254 220
-26 0 -69 -23 -180 -95 -81 -52 -152 -95 -158 -95 -6 0 -57 22 -114 50 -57 27
-143 62 -192 77 -50 16 -89 34 -92 43 -2 8 -20 89 -40 180 -25 114 -42 171
-56 185 -19 19 -34 20 -322 22 -166 1 -312 -2 -324 -7z"/>
<path d="M5062 4619 c-68 -11 -143 -50 -192 -99 -40 -40 -90 -126 -90 -155 0
-13 -33 -15 -262 -15 l-262 0 -271 -270 -270 -270 -406 0 -406 0 -21 -23 c-32
-34 -30 -89 4 -116 26 -21 37 -21 467 -21 l440 0 272 270 271 270 217 0 217 0
28 -62 c33 -73 108 -148 180 -181 38 -18 66 -22 142 -22 83 0 102 3 151 28 76
37 150 117 178 192 32 84 27 207 -13 283 -33 66 -91 124 -154 156 -42 22 -66
28 -147 40 -11 2 -44 -1 -73 -5z"/>
<path d="M4743 3336 c-94 -31 -190 -121 -220 -207 l-18 -49 -643 0 -643 0 -24
-25 c-33 -32 -34 -83 -2 -113 l23 -22 642 0 642 0 28 -62 c34 -74 95 -138 166
-176 46 -24 61 -27 156 -27 96 0 110 3 158 28 67 35 124 92 159 159 25 48 28
63 28 153 0 89 -3 106 -28 157 -60 121 -165 190 -301 195 -50 2 -97 -2 -123
-11z"/>
<path d="M2892 2334 c-32 -22 -43 -57 -31 -94 21 -59 28 -60 466 -60 l398 0
265 -265 265 -265 257 0 256 0 13 -37 c51 -156 222 -259 388 -232 259 41 383
347 227 560 -93 127 -288 176 -431 108 -70 -33 -146 -112 -175 -181 l-24 -58
-220 0 -221 0 -270 270 -271 270 -435 0 c-382 0 -437 -2 -457 -16z"/>
</g>
</svg>
