<?xml version="1.0" standalone="no"?>
<!DOCTYPE svg PUBLIC "-//W3C//DTD SVG 20010904//EN"
 "http://www.w3.org/TR/2001/REC-SVG-20010904/DTD/svg10.dtd">
<svg version="1.0" xmlns="http://www.w3.org/2000/svg"
 width="512.000000pt" height="512.000000pt" viewBox="0 0 512.000000 512.000000"
 preserveAspectRatio="xMidYMid meet">

<g transform="translate(0.000000,512.000000) scale(0.100000,-0.100000)"
fill="#000000" stroke="none">
<path d="M223 5101 c-72 -24 -127 -65 -163 -120 -65 -97 -60 78 -58 -2441 l3
-2295 26 -56 c33 -71 87 -125 158 -158 l56 -26 1355 0 1355 0 56 26 c71 33
125 87 158 158 l26 56 3 463 3 462 -106 0 -105 0 0 -50 0 -50 -1390 0 -1390 0
0 1490 0 1490 1390 0 1390 0 0 -850 0 -850 105 0 105 0 -2 1263 -3 1262 -26
56 c-33 71 -87 125 -158 158 l-56 26 -1340 2 c-1269 2 -1343 2 -1392 -16z
m2729 -229 l33 -32 3 -285 3 -285 -1391 0 -1391 0 3 284 3 285 29 30 c16 16
38 32 50 34 11 3 607 4 1323 3 l1303 -1 32 -33z m36 -4307 l-3 -285 -33 -32
-32 -33 -1320 0 -1320 0 -32 33 -33 32 -3 285 -3 285 1391 0 1391 0 -3 -285z"/>
<path d="M1280 4585 l0 -105 320 0 320 0 0 105 0 105 -320 0 -320 0 0 -105z"/>
<path d="M1280 535 l0 -105 320 0 320 0 0 105 0 105 -320 0 -320 0 0 -105z"/>
<path d="M980 3721 c-84 -26 -159 -90 -201 -171 l-24 -45 0 -625 0 -625 24
-45 c32 -61 86 -116 146 -148 l50 -27 625 0 625 0 45 24 c61 32 116 86 148
146 l27 50 0 625 0 625 -27 50 c-32 60 -87 114 -148 146 l-45 24 -610 2 c-335
1 -621 -2 -635 -6z m1200 -216 c61 -32 60 -21 60 -625 0 -604 1 -593 -60 -625
-44 -23 -1116 -23 -1160 0 -61 32 -60 21 -60 625 0 602 -1 593 58 624 41 23
1119 23 1162 1z"/>
<path d="M1670 2995 l-175 -175 -65 65 c-36 36 -70 65 -76 65 -13 0 -144 -133
-144 -146 0 -6 51 -61 113 -122 125 -121 158 -138 213 -109 16 9 126 113 244
231 l215 216 -75 75 -75 75 -175 -175z"/>
<path d="M4665 3501 c-16 -10 -400 -390 -852 -843 -635 -635 -823 -829 -824
-848 0 -14 0 -67 1 -117 l1 -93 -910 0 -911 0 0 -105 0 -105 1108 -2 c609 -2
1118 -2 1132 0 18 3 266 244 853 830 456 455 835 840 844 856 31 59 15 86
-154 258 -189 191 -222 210 -288 169z m130 -311 l70 -70 -738 -738 -737 -737
-72 73 -73 72 735 735 c404 404 737 735 740 735 3 0 37 -32 75 -70z"/>
<path d="M750 1495 l0 -105 105 0 105 0 0 105 0 105 -105 0 -105 0 0 -105z"/>
</g>
</svg>
