<?xml version="1.0" standalone="no"?>
<!DOCTYPE svg PUBLIC "-//W3C//DTD SVG 20010904//EN"
 "http://www.w3.org/TR/2001/REC-SVG-20010904/DTD/svg10.dtd">
<svg version="1.0" xmlns="http://www.w3.org/2000/svg"
 width="500.000000pt" height="300.000000pt" viewBox="0 0 500.000000 300.000000"
 preserveAspectRatio="xMidYMid meet">

<g transform="translate(0.000000,300.000000) scale(0.100000,-0.100000)"
fill="#000000" stroke="none">
<path d="M3109 2972 c-22 -19 -34 -43 -43 -81 -12 -52 -13 -54 -70 -77 l-59
-24 -40 30 c-29 21 -52 30 -80 30 -34 0 -47 -8 -104 -62 -36 -35 -72 -76 -80
-92 -19 -36 -11 -79 22 -122 30 -40 30 -36 3 -101 -22 -54 -26 -57 -90 -67
-24 -4 -46 -17 -62 -37 -24 -29 -26 -37 -26 -136 0 -102 1 -105 29 -133 20
-21 42 -31 78 -36 l49 -6 23 -60 23 -59 -25 -37 c-53 -77 -45 -117 41 -204 84
-86 125 -94 204 -41 l37 25 59 -23 60 -23 6 -49 c5 -36 15 -58 36 -78 28 -28
31 -29 134 -29 101 0 107 1 137 28 24 21 32 38 36 76 6 47 7 48 61 72 67 30
66 30 106 -1 43 -33 86 -41 122 -22 16 8 57 44 92 80 54 57 62 70 62 104 0 28
-9 51 -30 80 l-30 40 24 59 c23 57 25 58 76 70 32 7 63 22 79 38 24 24 26 34
29 120 3 71 0 101 -12 125 -19 35 -62 61 -103 61 -38 0 -45 7 -70 69 l-23 54
30 45 c50 76 44 102 -48 194 -92 92 -118 98 -194 48 l-45 -30 -54 23 c-62 25
-69 32 -69 70 0 15 -7 41 -15 57 -24 46 -62 60 -164 60 -85 0 -93 -2 -122 -28z
m181 -132 c0 -44 23 -93 51 -107 61 -30 157 -66 189 -70 26 -3 44 2 70 19 19
13 40 27 46 31 6 3 25 -8 42 -26 l31 -32 -30 -45 c-24 -35 -29 -53 -26 -80 4
-32 40 -128 70 -189 14 -28 63 -51 107 -51 29 0 30 -1 30 -49 l0 -50 -55 -11
c-53 -11 -95 -44 -95 -74 0 -6 -14 -40 -30 -74 -38 -81 -38 -118 -1 -169 l29
-41 -33 -32 -33 -32 -31 21 c-61 43 -83 45 -158 13 -37 -16 -83 -35 -101 -42
-41 -16 -64 -50 -72 -104 -5 -41 -5 -41 -52 -44 l-47 -3 -7 48 c-7 51 -56 113
-88 113 -9 0 -40 12 -69 26 -28 14 -69 26 -89 26 -33 1 -49 -7 -104 -47 -10
-7 -22 -1 -46 22 l-31 32 28 40 c37 54 36 98 -4 181 -17 36 -31 70 -31 77 0
22 -59 61 -105 67 l-46 7 3 47 c3 47 3 47 44 52 54 8 88 31 104 72 7 18 26 64
42 101 32 75 30 97 -13 158 l-21 31 32 33 32 33 41 -29 c24 -18 52 -29 72 -29
28 0 104 29 195 73 29 15 47 47 55 100 l6 37 49 0 c49 0 50 -1 50 -30z"/>
<path d="M3173 2501 c-119 -31 -203 -136 -203 -257 0 -79 17 -128 64 -181 55
-62 122 -93 207 -93 108 0 187 50 241 154 31 59 31 164 0 228 -26 53 -88 113
-137 134 -43 18 -131 25 -172 15z m120 -125 c78 -32 113 -116 81 -194 -28 -68
-73 -95 -148 -90 -54 4 -62 8 -97 46 -35 37 -39 47 -39 94 0 68 27 113 83 138
50 23 77 25 120 6z"/>
<path d="M1700 1981 c-58 -18 -206 -84 -223 -99 -34 -30 -41 -84 -23 -158 l17
-68 -69 -69 -70 -70 -70 18 c-77 18 -124 12 -155 -23 -23 -25 -107 -231 -107
-261 0 -42 32 -82 95 -121 l60 -37 1 -100 0 -99 -58 -35 c-63 -36 -98 -80 -98
-122 0 -30 84 -233 107 -259 31 -35 84 -43 157 -23 l66 18 72 -71 71 -72 -17
-64 c-33 -121 -10 -155 148 -221 93 -38 122 -46 150 -41 42 8 83 46 116 108
l24 45 100 -1 100 -1 33 -55 c65 -110 99 -118 244 -60 130 52 142 60 164 106
17 36 17 41 0 112 l-17 75 69 69 69 69 68 -17 c54 -13 75 -15 105 -5 51 15 62
30 111 146 67 158 58 203 -49 265 l-59 35 0 98 0 99 46 26 c118 68 130 110 71
254 -53 128 -62 142 -106 164 -35 16 -41 16 -111 -1 l-75 -17 -70 70 -70 70
16 65 c31 123 5 160 -159 225 -149 59 -188 48 -256 -70 l-26 -46 -99 0 -98 0
-35 59 c-19 33 -43 66 -55 73 -28 19 -75 26 -105 17z m65 -191 c51 -84 66 -90
230 -90 162 0 180 7 225 85 17 30 34 56 38 59 7 4 136 -44 147 -55 3 -4 -2
-36 -11 -72 -9 -39 -13 -78 -9 -94 8 -34 186 -217 227 -234 25 -10 42 -9 101
5 38 9 73 14 76 10 11 -10 59 -139 55 -146 -3 -4 -29 -21 -59 -38 -78 -45 -85
-63 -85 -225 0 -164 6 -179 90 -230 33 -20 60 -37 60 -39 0 -12 -61 -141 -68
-144 -6 -2 -38 4 -72 13 -87 23 -108 13 -222 -103 -110 -111 -117 -129 -93
-222 9 -35 13 -66 8 -70 -17 -14 -135 -60 -143 -55 -5 3 -23 30 -40 60 -45 78
-63 85 -225 85 -163 0 -182 -7 -226 -85 -17 -30 -35 -57 -39 -60 -8 -5 -126
41 -144 56 -4 4 -1 37 9 74 12 51 14 74 6 97 -14 39 -190 215 -229 229 -23 8
-46 6 -97 -6 -37 -10 -70 -13 -74 -9 -15 18 -61 136 -56 144 3 4 30 22 60 39
78 44 85 63 85 225 0 82 -5 145 -12 161 -6 14 -40 43 -75 65 -35 22 -63 42
-63 44 0 8 53 131 60 139 4 5 35 1 70 -8 93 -24 111 -17 222 93 118 116 127
136 102 228 -9 35 -14 67 -10 71 6 7 125 60 138 62 4 1 23 -26 43 -59z"/>
<path d="M1887 1439 c-298 -70 -443 -430 -278 -688 163 -254 524 -284 724 -62
228 255 105 658 -228 747 -56 15 -160 17 -218 3z m193 -135 c124 -37 202 -122
232 -252 30 -135 -55 -294 -190 -355 -73 -33 -190 -30 -263 6 -67 32 -132 99
-162 165 -16 35 -21 67 -21 127 0 95 21 150 84 219 84 91 204 125 320 90z"/>
</g>
</svg>
